<?xml version="1.0" encoding="utf-8"?>
<!-- Generator: Adobe Illustrator 23.0.5, SVG Export Plug-In . SVG Version: 6.00 Build 0)  -->
<svg version="1.1" id="Capa_1" xmlns="http://www.w3.org/2000/svg" xmlns:xlink="http://www.w3.org/1999/xlink" x="0px" y="0px"
	 viewBox="0 0 1193 500" style="enable-background:new 0 0 1193 500;" xml:space="preserve">
<style type="text/css">
	.st0{fill:#B6D054;}
	.st1{fill:#192B4A;}
	.st2{fill:#1B3155;}
	.st3{clip-path:url(#SVGID_1_);}
	.st4{clip-path:url(#SVGID_1_);fill:#B6D054;}
	.st5{fill:none;}
</style>
<g>
	<g>
		<path class="st0" d="M561.1,260.08v9.88h12.46v5.1H561.1v10.07h15.81v5.3h-22.46v-35.62h22.46v5.27H561.1z"/>
		<path class="st0" d="M612.8,254.81v35.62h-3.4c-0.53,0-0.97-0.09-1.32-0.26c-0.35-0.17-0.69-0.46-1.02-0.87l-18.6-23.74
			c0.1,1.08,0.15,2.08,0.15,3v21.87h-5.84v-35.62h3.47c0.28,0,0.52,0.01,0.73,0.04c0.21,0.03,0.39,0.07,0.54,0.15
			c0.16,0.07,0.31,0.18,0.45,0.32c0.15,0.14,0.31,0.32,0.49,0.55l18.67,23.84c-0.05-0.57-0.09-1.14-0.12-1.7
			c-0.03-0.56-0.05-1.08-0.05-1.55v-21.65H612.8z"/>
		<path class="st0" d="M651.25,254.81l-14.38,35.62h-5.98l-14.39-35.62h5.32c0.58,0,1.04,0.14,1.4,0.42
			c0.36,0.28,0.63,0.64,0.81,1.08l8.4,21.72c0.28,0.71,0.55,1.48,0.8,2.33c0.25,0.85,0.5,1.73,0.73,2.65
			c0.2-0.92,0.41-1.8,0.64-2.65c0.23-0.85,0.48-1.62,0.76-2.33l8.35-21.72c0.13-0.38,0.39-0.72,0.78-1.03
			c0.39-0.31,0.86-0.47,1.42-0.47H651.25z"/>
		<path class="st0" d="M661.59,290.43h-6.65v-35.62h6.65V290.43z"/>
		<path class="st0" d="M697.35,290.43h-5.98c-1.13,0-1.95-0.44-2.46-1.33l-7.49-11.4c-0.28-0.43-0.59-0.73-0.92-0.91
			c-0.34-0.18-0.83-0.27-1.49-0.27h-2.83v13.92h-6.63v-35.62h10.86c2.41,0,4.49,0.25,6.22,0.75c1.73,0.5,3.15,1.2,4.26,2.11
			c1.11,0.9,1.92,1.98,2.45,3.24c0.53,1.26,0.79,2.64,0.79,4.15c0,1.2-0.18,2.33-0.53,3.4c-0.35,1.07-0.86,2.04-1.53,2.91
			c-0.66,0.87-1.49,1.63-2.46,2.29c-0.98,0.66-2.09,1.17-3.34,1.55c0.43,0.25,0.82,0.54,1.18,0.87c0.36,0.34,0.69,0.74,0.99,1.2
			L697.35,290.43z M680.31,271.76c1.25,0,2.34-0.16,3.26-0.47c0.93-0.31,1.69-0.74,2.29-1.29c0.6-0.55,1.05-1.2,1.34-1.96
			c0.3-0.76,0.44-1.58,0.44-2.49c0-1.81-0.59-3.19-1.79-4.16c-1.19-0.97-3.01-1.45-5.46-1.45h-4.24v11.82H680.31z"/>
		<path class="st0" d="M734.69,272.62c0,2.61-0.43,5.03-1.29,7.25c-0.86,2.22-2.08,4.15-3.66,5.78c-1.58,1.62-3.47,2.89-5.69,3.8
			c-2.22,0.91-4.68,1.37-7.39,1.37c-2.69,0-5.15-0.45-7.36-1.37c-2.22-0.91-4.12-2.18-5.7-3.8c-1.59-1.63-2.81-3.55-3.68-5.78
			c-0.87-2.22-1.31-4.64-1.31-7.25c0-2.61,0.43-5.03,1.31-7.25c0.87-2.22,2.1-4.15,3.68-5.78c1.58-1.63,3.48-2.89,5.7-3.81
			c2.22-0.91,4.67-1.37,7.36-1.37c1.81,0,3.51,0.21,5.1,0.63c1.59,0.42,3.05,1.01,4.38,1.77c1.33,0.76,2.52,1.69,3.58,2.78
			c1.06,1.09,1.96,2.31,2.7,3.66c0.74,1.35,1.3,2.81,1.69,4.38C734.5,269.22,734.69,270.88,734.69,272.62z M727.92,272.62
			c0-1.95-0.26-3.71-0.79-5.26c-0.53-1.55-1.27-2.87-2.24-3.95s-2.15-1.91-3.53-2.49c-1.39-0.57-2.95-0.86-4.69-0.86
			c-1.74,0-3.31,0.29-4.69,0.86c-1.39,0.58-2.57,1.4-3.55,2.49c-0.98,1.08-1.73,2.4-2.25,3.95c-0.53,1.55-0.79,3.3-0.79,5.26
			c0,1.95,0.26,3.71,0.79,5.26c0.52,1.55,1.28,2.87,2.25,3.94c0.98,1.08,2.16,1.9,3.55,2.48c1.39,0.57,2.95,0.86,4.69,0.86
			c1.74,0,3.3-0.29,4.69-0.86c1.39-0.58,2.57-1.4,3.53-2.48c0.97-1.07,1.72-2.39,2.24-3.94
			C727.66,276.33,727.92,274.57,727.92,272.62z"/>
		<path class="st0" d="M770.56,254.81v35.62h-3.4c-0.53,0-0.97-0.09-1.32-0.26c-0.35-0.17-0.69-0.46-1.02-0.87l-18.6-23.74
			c0.1,1.08,0.15,2.08,0.15,3v21.87h-5.84v-35.62H744c0.28,0,0.52,0.01,0.73,0.04c0.21,0.03,0.39,0.07,0.54,0.15
			c0.16,0.07,0.31,0.18,0.45,0.32c0.15,0.14,0.31,0.32,0.49,0.55l18.67,23.84c-0.05-0.57-0.09-1.14-0.12-1.7
			c-0.03-0.56-0.05-1.08-0.05-1.55v-21.65H770.56z"/>
		<path class="st0" d="M817.11,254.81v35.62h-5.84v-23c0-0.92,0.05-1.91,0.15-2.98l-10.76,20.22c-0.51,0.97-1.29,1.45-2.34,1.45
			h-0.94c-1.05,0-1.83-0.48-2.34-1.45l-10.89-20.3c0.05,0.54,0.09,1.08,0.12,1.6c0.03,0.53,0.05,1.01,0.05,1.45v23h-5.84v-35.62h5
			c0.3,0,0.55,0.01,0.76,0.02c0.21,0.02,0.41,0.06,0.58,0.12c0.17,0.07,0.33,0.17,0.47,0.32c0.14,0.15,0.27,0.34,0.41,0.59
			l10.66,19.78c0.28,0.53,0.54,1.07,0.78,1.63c0.24,0.56,0.47,1.13,0.7,1.72c0.23-0.61,0.47-1.2,0.71-1.76
			c0.25-0.57,0.51-1.11,0.79-1.64l10.52-19.73c0.13-0.25,0.27-0.44,0.42-0.59c0.15-0.15,0.31-0.25,0.48-0.32
			c0.17-0.07,0.37-0.11,0.58-0.12s0.47-0.02,0.76-0.02H817.11z"/>
		<path class="st0" d="M831.69,260.08v9.88h12.46v5.1h-12.46v10.07h15.81v5.3h-22.46v-35.62h22.46v5.27H831.69z"/>
		<path class="st0" d="M883.39,254.81v35.62h-3.4c-0.53,0-0.97-0.09-1.32-0.26c-0.35-0.17-0.69-0.46-1.02-0.87l-18.6-23.74
			c0.1,1.08,0.15,2.08,0.15,3v21.87h-5.84v-35.62h3.47c0.28,0,0.52,0.01,0.73,0.04c0.21,0.03,0.39,0.07,0.54,0.15
			c0.16,0.07,0.31,0.18,0.45,0.32c0.15,0.14,0.31,0.32,0.49,0.55l18.67,23.84c-0.05-0.57-0.09-1.14-0.12-1.7
			c-0.03-0.56-0.05-1.08-0.05-1.55v-21.65H883.39z"/>
		<path class="st0" d="M916.2,260.26h-10.74v30.17h-6.63v-30.17h-10.74v-5.44h28.1V260.26z"/>
	</g>
	<g>
		<path class="st1" d="M563.24,187.54v17.96h22.66v9.27h-22.66v18.32H592v9.63h-40.84v-64.76H592v9.58H563.24z"/>
		<path class="st1" d="M657.24,177.96v64.76h-6.18c-0.96,0-1.75-0.16-2.4-0.47c-0.64-0.31-1.26-0.84-1.86-1.59L613,197.48
			c0.18,1.97,0.27,3.79,0.27,5.46v39.77h-10.61v-64.76h6.31c0.51,0,0.95,0.02,1.32,0.07c0.37,0.04,0.7,0.13,0.99,0.27
			c0.28,0.13,0.56,0.33,0.83,0.58c0.27,0.25,0.57,0.59,0.9,1.01l33.95,43.35c-0.09-1.04-0.16-2.07-0.22-3.09
			c-0.06-1.01-0.09-1.95-0.09-2.82v-39.36H657.24z"/>
		<path class="st1" d="M725.05,210.24v26.2c-3.28,2.42-6.79,4.19-10.5,5.31c-3.72,1.12-7.7,1.68-11.93,1.68
			c-5.28,0-10.07-0.82-14.35-2.46c-4.28-1.64-7.94-3.93-10.97-6.85c-3.03-2.93-5.37-6.42-7.01-10.48c-1.64-4.06-2.46-8.49-2.46-13.3
			c0-4.87,0.79-9.33,2.37-13.39c1.58-4.06,3.83-7.55,6.74-10.48c2.91-2.93,6.44-5.19,10.59-6.81c4.15-1.61,8.81-2.42,13.97-2.42
			c2.63,0,5.08,0.21,7.37,0.63c2.28,0.42,4.4,0.99,6.36,1.72c1.95,0.73,3.74,1.62,5.35,2.66c1.61,1.05,3.09,2.19,4.43,3.45
			l-3.45,5.46c-0.54,0.87-1.24,1.4-2.1,1.59c-0.87,0.19-1.81-0.02-2.82-0.65c-0.99-0.57-1.97-1.13-2.96-1.7
			c-0.99-0.57-2.08-1.06-3.29-1.48c-1.21-0.42-2.57-0.76-4.07-1.03c-1.51-0.27-3.25-0.4-5.22-0.4c-3.19,0-6.08,0.54-8.66,1.61
			c-2.58,1.07-4.79,2.61-6.61,4.61c-1.82,2-3.22,4.4-4.21,7.21c-0.99,2.81-1.48,5.94-1.48,9.4c0,3.7,0.53,7.01,1.59,9.92
			c1.06,2.91,2.55,5.37,4.48,7.39c1.93,2.02,4.25,3.55,6.96,4.61c2.72,1.06,5.75,1.59,9.09,1.59c2.39,0,4.52-0.25,6.4-0.76
			c1.88-0.51,3.72-1.19,5.51-2.06v-11.73h-8.15c-0.78,0-1.38-0.22-1.81-0.65c-0.43-0.43-0.65-0.96-0.65-1.59v-6.81H725.05z"/>
		<path class="st1" d="M774.62,232.77v9.94h-37.93v-64.76h12.05v54.81H774.62z"/>
		<path class="st1" d="M795.31,242.71h-12.09v-64.76h12.09V242.71z"/>
		<path class="st1" d="M844.26,189.73c-0.36,0.63-0.74,1.08-1.14,1.37c-0.4,0.28-0.9,0.43-1.5,0.43c-0.63,0-1.31-0.23-2.04-0.69
			c-0.73-0.46-1.61-0.98-2.62-1.54c-1.01-0.57-2.2-1.08-3.56-1.54c-1.36-0.46-2.96-0.69-4.81-0.69c-1.67,0-3.13,0.2-4.39,0.6
			c-1.25,0.4-2.31,0.96-3.16,1.68c-0.85,0.72-1.49,1.57-1.9,2.57c-0.42,1-0.63,2.1-0.63,3.29c0,1.52,0.43,2.79,1.28,3.81
			c0.85,1.02,1.98,1.88,3.38,2.6c1.4,0.72,3,1.36,4.79,1.93c1.79,0.57,3.63,1.17,5.51,1.81c1.88,0.64,3.72,1.39,5.51,2.24
			c1.79,0.85,3.39,1.93,4.79,3.22c1.4,1.3,2.53,2.89,3.38,4.77c0.85,1.88,1.28,4.17,1.28,6.85c0,2.93-0.5,5.67-1.5,8.22
			c-1,2.55-2.46,4.78-4.39,6.67c-1.93,1.9-4.28,3.39-7.05,4.48c-2.78,1.09-5.96,1.63-9.54,1.63c-2.06,0-4.09-0.2-6.09-0.6
			c-2-0.4-3.92-0.98-5.76-1.72c-1.84-0.75-3.56-1.64-5.17-2.69c-1.61-1.05-3.04-2.21-4.3-3.49l3.54-5.78
			c0.3-0.42,0.69-0.77,1.16-1.05c0.48-0.28,0.99-0.43,1.52-0.43c0.75,0,1.55,0.31,2.42,0.92c0.87,0.61,1.9,1.29,3.09,2.04
			c1.19,0.75,2.59,1.43,4.19,2.04c1.6,0.61,3.52,0.92,5.76,0.92c3.43,0,6.09-0.81,7.97-2.44c1.88-1.63,2.82-3.96,2.82-7.01
			c0-1.7-0.43-3.09-1.28-4.17c-0.85-1.07-1.98-1.98-3.38-2.71c-1.4-0.73-3-1.35-4.79-1.86c-1.79-0.51-3.61-1.06-5.46-1.66
			c-1.85-0.6-3.67-1.31-5.46-2.15c-1.79-0.84-3.39-1.93-4.79-3.27c-1.4-1.34-2.53-3.02-3.38-5.04c-0.85-2.02-1.28-4.5-1.28-7.46
			c0-2.36,0.47-4.66,1.41-6.9c0.94-2.24,2.31-4.22,4.1-5.96c1.79-1.73,4-3.12,6.63-4.16c2.63-1.04,5.64-1.57,9.05-1.57
			c3.82,0,7.34,0.6,10.57,1.79c3.23,1.19,5.97,2.87,8.24,5.02L844.26,189.73z"/>
		<path class="st1" d="M913.49,177.96v64.76H901.4v-28.3h-30.41v28.3H858.9v-64.76h12.09v27.85h30.41v-27.85H913.49z"/>
	</g>
	<g>
		<path class="st2" d="M562.81,324.8l-0.01,1.63h-8.38V312.9h8.38v1.63h-6.37v4.29h5.12v1.57h-5.12v4.41H562.81z"/>
		<path class="st2" d="M566.39,318.19c0.21-0.22,0.42-0.42,0.65-0.6c0.23-0.18,0.47-0.34,0.72-0.47c0.25-0.13,0.53-0.23,0.82-0.3
			c0.29-0.07,0.6-0.11,0.94-0.11c0.53,0,0.99,0.09,1.39,0.26c0.4,0.18,0.73,0.42,1,0.74c0.27,0.32,0.47,0.7,0.61,1.14
			c0.14,0.45,0.21,0.94,0.21,1.48v6.09h-1.85v-6.09c0-0.68-0.16-1.22-0.47-1.6c-0.31-0.38-0.79-0.57-1.44-0.57
			c-0.47,0-0.91,0.11-1.32,0.33c-0.41,0.22-0.79,0.53-1.14,0.91v7.02h-1.84v-9.57h1.1c0.26,0,0.42,0.12,0.48,0.37L566.39,318.19z"/>
		<path class="st2" d="M578.07,326.58c-0.77,0-1.37-0.22-1.78-0.65c-0.42-0.43-0.63-1.05-0.63-1.86v-5.73h-1.11
			c-0.11,0-0.2-0.03-0.27-0.1c-0.07-0.07-0.11-0.16-0.11-0.3v-0.74l1.55-0.22l0.41-2.85c0.03-0.11,0.07-0.19,0.15-0.25
			c0.07-0.06,0.16-0.09,0.28-0.09h0.93v3.21h2.71v1.34h-2.71v5.6c0,0.38,0.09,0.66,0.28,0.84c0.18,0.19,0.42,0.28,0.71,0.28
			c0.17,0,0.32-0.02,0.44-0.07c0.12-0.04,0.23-0.09,0.32-0.15c0.09-0.05,0.16-0.1,0.23-0.15c0.06-0.04,0.12-0.07,0.17-0.07
			c0.06,0,0.11,0.01,0.15,0.04c0.03,0.03,0.07,0.07,0.11,0.14l0.55,0.89c-0.3,0.28-0.66,0.49-1.07,0.64
			C578.95,326.5,578.52,326.58,578.07,326.58z"/>
		<path class="st2" d="M585.92,316.71c0.7,0,1.34,0.11,1.91,0.34c0.57,0.23,1.05,0.56,1.45,0.99c0.4,0.43,0.7,0.95,0.92,1.55
			c0.21,0.61,0.32,1.29,0.32,2.04c0,0.75-0.11,1.43-0.32,2.04c-0.21,0.61-0.52,1.13-0.92,1.55c-0.4,0.43-0.88,0.76-1.45,0.98
			c-0.57,0.23-1.2,0.34-1.91,0.34c-0.71,0-1.35-0.11-1.92-0.34c-0.57-0.23-1.05-0.56-1.46-0.98c-0.4-0.43-0.71-0.94-0.93-1.55
			c-0.22-0.61-0.32-1.29-0.32-2.04c0-0.75,0.11-1.43,0.32-2.04c0.22-0.61,0.53-1.12,0.93-1.55c0.4-0.43,0.89-0.76,1.46-0.99
			C584.57,316.82,585.21,316.71,585.92,316.71z M585.92,325.13c0.9,0,1.58-0.3,2.03-0.91c0.45-0.61,0.67-1.47,0.67-2.57
			c0-1.1-0.22-1.96-0.67-2.58c-0.45-0.61-1.12-0.92-2.03-0.92c-0.92,0-1.6,0.31-2.05,0.92c-0.45,0.61-0.67,1.47-0.67,2.58
			c0,1.11,0.22,1.96,0.67,2.57C584.32,324.82,585,325.13,585.92,325.13z"/>
		<path class="st2" d="M594.29,318.7c0.31-0.63,0.68-1.12,1.11-1.48c0.43-0.36,0.95-0.54,1.56-0.54c0.21,0,0.4,0.02,0.59,0.07
			c0.19,0.05,0.35,0.12,0.48,0.21l-0.12,1.38c-0.04,0.17-0.15,0.25-0.31,0.25c-0.09,0-0.22-0.02-0.4-0.05
			c-0.18-0.03-0.36-0.05-0.56-0.05c-0.3,0-0.56,0.04-0.78,0.13c-0.23,0.08-0.43,0.21-0.61,0.38c-0.18,0.17-0.34,0.37-0.48,0.61
			c-0.14,0.24-0.27,0.52-0.39,0.82v5.99h-1.84v-9.57h1.05c0.2,0,0.34,0.04,0.41,0.11c0.07,0.07,0.12,0.2,0.16,0.38L594.29,318.7z"/>
		<path class="st2" d="M601.18,318.19c0.21-0.22,0.42-0.42,0.65-0.6c0.23-0.18,0.47-0.34,0.72-0.47c0.25-0.13,0.53-0.23,0.82-0.3
			c0.29-0.07,0.6-0.11,0.94-0.11c0.53,0,0.99,0.09,1.39,0.26c0.4,0.18,0.73,0.42,1,0.74c0.27,0.32,0.47,0.7,0.61,1.14
			c0.14,0.45,0.21,0.94,0.21,1.48v6.09h-1.85v-6.09c0-0.68-0.16-1.22-0.47-1.6c-0.31-0.38-0.79-0.57-1.44-0.57
			c-0.47,0-0.91,0.11-1.32,0.33c-0.41,0.22-0.79,0.53-1.14,0.91v7.02h-1.84v-9.57h1.1c0.26,0,0.42,0.12,0.48,0.37L601.18,318.19z"/>
		<path class="st2" d="M614.08,316.71c0.7,0,1.34,0.11,1.91,0.34c0.57,0.23,1.05,0.56,1.45,0.99c0.4,0.43,0.7,0.95,0.92,1.55
			c0.21,0.61,0.32,1.29,0.32,2.04c0,0.75-0.11,1.43-0.32,2.04c-0.21,0.61-0.52,1.13-0.92,1.55c-0.4,0.43-0.88,0.76-1.45,0.98
			c-0.57,0.23-1.2,0.34-1.91,0.34c-0.71,0-1.35-0.11-1.92-0.34c-0.57-0.23-1.05-0.56-1.46-0.98c-0.4-0.43-0.71-0.94-0.93-1.55
			c-0.22-0.61-0.32-1.29-0.32-2.04c0-0.75,0.11-1.43,0.32-2.04c0.22-0.61,0.53-1.12,0.93-1.55c0.4-0.43,0.89-0.76,1.46-0.99
			C612.73,316.82,613.37,316.71,614.08,316.71z M614.08,325.13c0.9,0,1.58-0.3,2.03-0.91c0.45-0.61,0.67-1.47,0.67-2.57
			c0-1.1-0.22-1.96-0.67-2.58c-0.45-0.61-1.12-0.92-2.03-0.92c-0.92,0-1.6,0.31-2.05,0.92c-0.45,0.61-0.67,1.47-0.67,2.58
			c0,1.11,0.22,1.96,0.67,2.57C612.48,324.82,613.16,325.13,614.08,325.13z"/>
		<path class="st2" d="M633.49,312.53v13.9h-1.11c-0.26,0-0.42-0.12-0.48-0.37l-0.16-1.1c-0.41,0.48-0.87,0.87-1.39,1.16
			c-0.52,0.29-1.12,0.44-1.79,0.44c-0.55,0-1.04-0.11-1.48-0.32c-0.44-0.21-0.82-0.53-1.14-0.94c-0.31-0.41-0.56-0.92-0.73-1.53
			c-0.17-0.61-0.25-1.31-0.25-2.1c0-0.71,0.09-1.37,0.28-1.98c0.19-0.61,0.46-1.14,0.82-1.58c0.36-0.45,0.79-0.8,1.3-1.05
			c0.51-0.25,1.08-0.38,1.72-0.38c0.58,0,1.07,0.09,1.47,0.28c0.41,0.19,0.77,0.46,1.09,0.8v-5.24H633.49z M631.64,319.18
			c-0.3-0.4-0.63-0.67-0.97-0.83c-0.35-0.16-0.74-0.24-1.17-0.24c-0.84,0-1.49,0.3-1.95,0.91c-0.46,0.61-0.69,1.49-0.69,2.65
			c0,0.61,0.05,1.13,0.16,1.56c0.1,0.43,0.25,0.78,0.45,1.05c0.2,0.27,0.44,0.47,0.73,0.6c0.29,0.13,0.62,0.19,0.98,0.19
			c0.53,0,1-0.12,1.38-0.36c0.39-0.24,0.75-0.57,1.09-1.01V319.18z"/>
		<path class="st2" d="M643.92,325.06c-0.23,0.26-0.49,0.49-0.78,0.68c-0.3,0.19-0.61,0.35-0.94,0.47
			c-0.33,0.12-0.68,0.21-1.03,0.26c-0.35,0.06-0.71,0.08-1.05,0.08c-0.66,0-1.27-0.11-1.83-0.33c-0.56-0.22-1.05-0.55-1.46-0.98
			c-0.41-0.43-0.73-0.96-0.96-1.6c-0.23-0.64-0.34-1.37-0.34-2.2c0-0.67,0.1-1.29,0.31-1.86c0.21-0.57,0.5-1.08,0.89-1.5
			c0.39-0.43,0.86-0.76,1.42-1.01c0.56-0.25,1.19-0.37,1.88-0.37c0.58,0,1.12,0.1,1.62,0.29c0.49,0.19,0.92,0.47,1.28,0.83
			c0.36,0.36,0.64,0.81,0.84,1.35c0.2,0.53,0.31,1.14,0.31,1.83c0,0.28-0.03,0.47-0.09,0.57c-0.06,0.1-0.18,0.15-0.35,0.15h-6.27
			c0.02,0.57,0.1,1.07,0.24,1.49c0.14,0.42,0.34,0.78,0.6,1.06c0.25,0.28,0.56,0.49,0.91,0.63c0.35,0.14,0.74,0.21,1.18,0.21
			c0.41,0,0.76-0.05,1.06-0.14c0.3-0.09,0.56-0.2,0.77-0.31c0.22-0.11,0.4-0.21,0.55-0.31c0.15-0.09,0.28-0.14,0.39-0.14
			c0.15,0,0.27,0.06,0.35,0.17L643.92,325.06z M642.4,320.58c0-0.36-0.05-0.7-0.16-1.01c-0.1-0.31-0.26-0.57-0.46-0.8
			c-0.2-0.23-0.45-0.4-0.73-0.53c-0.29-0.13-0.62-0.19-1-0.19c-0.77,0-1.38,0.22-1.82,0.67c-0.44,0.45-0.72,1.06-0.84,1.86H642.4z"
			/>
		<path class="st2" d="M661.69,326.43h-1.54c-0.18,0-0.32-0.04-0.43-0.13c-0.11-0.09-0.2-0.2-0.25-0.34l-1.2-3.14h-5.96l-1.2,3.14
			c-0.04,0.12-0.13,0.23-0.24,0.33c-0.12,0.1-0.26,0.15-0.43,0.15h-1.55l5.39-13.53h2.03L661.69,326.43z M657.73,321.39l-2.01-5.25
			c-0.14-0.36-0.29-0.81-0.43-1.36c-0.07,0.27-0.14,0.52-0.21,0.75c-0.07,0.23-0.14,0.44-0.21,0.62l-2,5.23H657.73z"/>
		<path class="st2" d="M664.74,318.29c0.2-0.24,0.42-0.46,0.64-0.66c0.23-0.2,0.48-0.37,0.74-0.51c0.26-0.14,0.54-0.25,0.84-0.33
			c0.3-0.08,0.62-0.12,0.96-0.12c0.55,0,1.04,0.11,1.48,0.32c0.44,0.21,0.82,0.53,1.14,0.94c0.31,0.41,0.56,0.93,0.73,1.53
			c0.17,0.61,0.26,1.31,0.26,2.1c0,0.71-0.1,1.37-0.29,1.97c-0.19,0.61-0.47,1.13-0.82,1.58c-0.35,0.45-0.79,0.8-1.3,1.05
			c-0.51,0.25-1.09,0.38-1.73,0.38c-0.57,0-1.06-0.09-1.47-0.28c-0.41-0.19-0.77-0.45-1.09-0.79v4.15H663v-12.78h1.1
			c0.26,0,0.42,0.12,0.48,0.37L664.74,318.29z M664.84,324.07c0.3,0.4,0.63,0.67,0.97,0.83c0.35,0.16,0.74,0.24,1.17,0.24
			c0.84,0,1.49-0.3,1.95-0.91c0.46-0.61,0.69-1.49,0.69-2.65c0-0.61-0.05-1.13-0.16-1.56c-0.1-0.43-0.25-0.78-0.45-1.05
			c-0.2-0.27-0.44-0.47-0.73-0.6c-0.29-0.13-0.62-0.19-0.98-0.19c-0.53,0-1,0.12-1.39,0.36c-0.39,0.24-0.76,0.58-1.09,1.02V324.07z"
			/>
		<path class="st2" d="M675.33,318.7c0.31-0.63,0.68-1.12,1.11-1.48c0.43-0.36,0.95-0.54,1.56-0.54c0.21,0,0.4,0.02,0.59,0.07
			c0.19,0.05,0.35,0.12,0.49,0.21l-0.12,1.38c-0.04,0.17-0.15,0.25-0.31,0.25c-0.09,0-0.22-0.02-0.4-0.05
			c-0.18-0.03-0.36-0.05-0.56-0.05c-0.3,0-0.56,0.04-0.78,0.13c-0.23,0.08-0.43,0.21-0.61,0.38c-0.18,0.17-0.34,0.37-0.48,0.61
			c-0.14,0.24-0.27,0.52-0.39,0.82v5.99h-1.84v-9.57h1.05c0.2,0,0.34,0.04,0.41,0.11c0.07,0.07,0.12,0.2,0.16,0.38L675.33,318.7z"/>
		<path class="st2" d="M688,325.06c-0.23,0.26-0.49,0.49-0.78,0.68c-0.3,0.19-0.61,0.35-0.94,0.47c-0.33,0.12-0.68,0.21-1.03,0.26
			c-0.35,0.06-0.71,0.08-1.05,0.08c-0.66,0-1.27-0.11-1.83-0.33c-0.56-0.22-1.05-0.55-1.46-0.98c-0.41-0.43-0.73-0.96-0.96-1.6
			c-0.23-0.64-0.34-1.37-0.34-2.2c0-0.67,0.1-1.29,0.31-1.86c0.21-0.57,0.5-1.08,0.89-1.5c0.39-0.43,0.86-0.76,1.42-1.01
			c0.56-0.25,1.19-0.37,1.88-0.37c0.58,0,1.12,0.1,1.62,0.29c0.49,0.19,0.92,0.47,1.28,0.83c0.36,0.36,0.64,0.81,0.84,1.35
			c0.2,0.53,0.31,1.14,0.31,1.83c0,0.28-0.03,0.47-0.09,0.57c-0.06,0.1-0.18,0.15-0.35,0.15h-6.27c0.02,0.57,0.1,1.07,0.24,1.49
			c0.14,0.42,0.34,0.78,0.6,1.06c0.25,0.28,0.56,0.49,0.91,0.63c0.35,0.14,0.74,0.21,1.18,0.21c0.41,0,0.76-0.05,1.06-0.14
			c0.3-0.09,0.56-0.2,0.77-0.31c0.22-0.11,0.4-0.21,0.55-0.31c0.15-0.09,0.28-0.14,0.39-0.14c0.15,0,0.27,0.06,0.35,0.17L688,325.06
			z M686.48,320.58c0-0.36-0.05-0.7-0.16-1.01c-0.1-0.31-0.26-0.57-0.46-0.8c-0.2-0.23-0.45-0.4-0.73-0.53
			c-0.29-0.13-0.62-0.19-1-0.19c-0.77,0-1.38,0.22-1.82,0.67c-0.44,0.45-0.72,1.06-0.84,1.86H686.48z"/>
		<path class="st2" d="M691.84,318.19c0.21-0.22,0.42-0.42,0.65-0.6c0.23-0.18,0.47-0.34,0.72-0.47c0.25-0.13,0.53-0.23,0.82-0.3
			c0.29-0.07,0.6-0.11,0.94-0.11c0.53,0,0.99,0.09,1.39,0.26c0.4,0.18,0.73,0.42,1,0.74c0.27,0.32,0.47,0.7,0.61,1.14
			c0.14,0.45,0.21,0.94,0.21,1.48v6.09h-1.85v-6.09c0-0.68-0.16-1.22-0.47-1.6c-0.31-0.38-0.79-0.57-1.44-0.57
			c-0.47,0-0.91,0.11-1.32,0.33c-0.41,0.22-0.79,0.53-1.14,0.91v7.02h-1.84v-9.57h1.1c0.26,0,0.42,0.12,0.48,0.37L691.84,318.19z"/>
		<path class="st2" d="M708.68,312.53v13.9h-1.11c-0.26,0-0.42-0.12-0.48-0.37l-0.16-1.1c-0.41,0.48-0.87,0.87-1.39,1.16
			c-0.52,0.29-1.12,0.44-1.79,0.44c-0.55,0-1.04-0.11-1.48-0.32c-0.44-0.21-0.82-0.53-1.14-0.94c-0.31-0.41-0.56-0.92-0.73-1.53
			c-0.17-0.61-0.25-1.31-0.25-2.1c0-0.71,0.09-1.37,0.28-1.98c0.19-0.61,0.46-1.14,0.82-1.58c0.36-0.45,0.79-0.8,1.3-1.05
			c0.51-0.25,1.08-0.38,1.72-0.38c0.58,0,1.07,0.09,1.47,0.28c0.41,0.19,0.77,0.46,1.09,0.8v-5.24H708.68z M706.83,319.18
			c-0.3-0.4-0.63-0.67-0.97-0.83c-0.35-0.16-0.74-0.24-1.17-0.24c-0.84,0-1.49,0.3-1.95,0.91c-0.46,0.61-0.69,1.49-0.69,2.65
			c0,0.61,0.05,1.13,0.16,1.56c0.1,0.43,0.25,0.78,0.45,1.05c0.2,0.27,0.44,0.47,0.73,0.6c0.29,0.13,0.62,0.19,0.98,0.19
			c0.53,0,1-0.12,1.38-0.36c0.39-0.24,0.75-0.57,1.09-1.01V319.18z"/>
		<path class="st2" d="M713.52,313.9c0,0.17-0.03,0.33-0.1,0.49c-0.07,0.15-0.16,0.29-0.28,0.41c-0.12,0.12-0.25,0.21-0.41,0.27
			c-0.16,0.07-0.32,0.1-0.49,0.1c-0.17,0-0.33-0.03-0.48-0.1c-0.15-0.07-0.28-0.16-0.4-0.27c-0.12-0.12-0.21-0.25-0.27-0.41
			c-0.07-0.15-0.1-0.32-0.1-0.49c0-0.18,0.03-0.34,0.1-0.5c0.07-0.15,0.16-0.29,0.27-0.4c0.12-0.12,0.25-0.21,0.4-0.27
			s0.31-0.1,0.48-0.1c0.17,0,0.33,0.03,0.49,0.1c0.16,0.07,0.29,0.16,0.41,0.27c0.12,0.12,0.21,0.25,0.28,0.4
			C713.48,313.56,713.52,313.73,713.52,313.9z M713.17,316.86v9.57h-1.84v-9.57H713.17z"/>
		<path class="st2" d="M722.5,317.63c0,0.13-0.02,0.26-0.07,0.39c-0.05,0.13-0.11,0.23-0.18,0.32l-5.02,6.65h5.11v1.44h-7.26v-0.77
			c0-0.09,0.02-0.19,0.07-0.31c0.04-0.12,0.11-0.24,0.19-0.34l5.05-6.7h-5.01v-1.44h7.14V317.63z"/>
		<path class="st2" d="M724.14,318.2c0.53-0.51,1.11-0.89,1.74-1.14c0.63-0.25,1.31-0.38,2.06-0.38c0.55,0,1.03,0.09,1.45,0.27
			c0.42,0.18,0.78,0.43,1.06,0.75c0.29,0.32,0.51,0.7,0.65,1.15c0.15,0.45,0.22,0.94,0.22,1.48v6.1h-0.82
			c-0.18,0-0.32-0.03-0.41-0.09c-0.09-0.06-0.17-0.17-0.23-0.33l-0.2-0.84c-0.25,0.23-0.49,0.43-0.73,0.6
			c-0.24,0.17-0.49,0.32-0.75,0.44c-0.26,0.12-0.54,0.22-0.83,0.28c-0.3,0.06-0.62,0.09-0.98,0.09c-0.38,0-0.73-0.05-1.06-0.16
			c-0.33-0.1-0.62-0.26-0.86-0.48c-0.24-0.21-0.44-0.48-0.58-0.8c-0.14-0.32-0.21-0.69-0.21-1.12c0-0.38,0.1-0.74,0.31-1.09
			c0.2-0.35,0.54-0.66,1-0.94c0.46-0.28,1.06-0.5,1.81-0.68c0.74-0.18,1.66-0.28,2.75-0.3v-0.7c0-0.72-0.15-1.26-0.46-1.62
			c-0.31-0.36-0.76-0.54-1.36-0.54c-0.4,0-0.74,0.05-1.01,0.15c-0.27,0.1-0.51,0.21-0.71,0.33c-0.2,0.12-0.37,0.23-0.52,0.33
			c-0.15,0.1-0.3,0.15-0.46,0.15c-0.13,0-0.23-0.03-0.32-0.1c-0.09-0.07-0.17-0.15-0.22-0.24L724.14,318.2z M729.53,322.18
			c-0.75,0.03-1.38,0.08-1.9,0.17c-0.52,0.09-0.94,0.21-1.27,0.36c-0.33,0.15-0.56,0.33-0.71,0.53c-0.14,0.2-0.22,0.43-0.22,0.68
			c0,0.24,0.04,0.44,0.12,0.62c0.08,0.17,0.18,0.31,0.32,0.42c0.14,0.11,0.29,0.19,0.48,0.24c0.18,0.05,0.38,0.08,0.59,0.08
			c0.28,0,0.54-0.03,0.78-0.08c0.24-0.06,0.46-0.14,0.66-0.24c0.21-0.1,0.41-0.23,0.59-0.38c0.19-0.15,0.37-0.32,0.56-0.52V322.18z"
			/>
		<path class="st2" d="M735.72,316.86v10.17c0,0.4-0.05,0.76-0.16,1.11c-0.1,0.34-0.27,0.64-0.49,0.89
			c-0.22,0.25-0.51,0.45-0.87,0.6c-0.35,0.14-0.78,0.22-1.29,0.22c-0.21,0-0.4-0.02-0.57-0.05c-0.17-0.03-0.35-0.08-0.52-0.13
			l0.08-1c0.03-0.12,0.08-0.18,0.16-0.2c0.08-0.01,0.25-0.02,0.49-0.02c0.48,0,0.83-0.11,1.03-0.33c0.2-0.22,0.3-0.58,0.3-1.09
			v-10.17H735.72z M736.07,313.9c0,0.17-0.03,0.33-0.1,0.49c-0.07,0.15-0.16,0.29-0.28,0.41c-0.12,0.12-0.26,0.21-0.41,0.27
			c-0.15,0.07-0.32,0.1-0.49,0.1c-0.17,0-0.33-0.03-0.48-0.1c-0.15-0.07-0.28-0.16-0.4-0.27c-0.12-0.12-0.21-0.25-0.27-0.41
			c-0.07-0.15-0.1-0.32-0.1-0.49c0-0.18,0.03-0.34,0.1-0.5c0.07-0.15,0.16-0.29,0.27-0.4c0.12-0.12,0.25-0.21,0.4-0.27
			s0.31-0.1,0.48-0.1c0.18,0,0.34,0.03,0.49,0.1c0.15,0.07,0.29,0.16,0.41,0.27c0.12,0.12,0.21,0.25,0.28,0.4
			C736.03,313.56,736.07,313.73,736.07,313.9z"/>
		<path class="st2" d="M746.24,325.06c-0.23,0.26-0.49,0.49-0.78,0.68c-0.3,0.19-0.61,0.35-0.94,0.47
			c-0.33,0.12-0.68,0.21-1.03,0.26c-0.35,0.06-0.71,0.08-1.05,0.08c-0.66,0-1.27-0.11-1.83-0.33c-0.56-0.22-1.05-0.55-1.46-0.98
			c-0.41-0.43-0.73-0.96-0.96-1.6c-0.23-0.64-0.34-1.37-0.34-2.2c0-0.67,0.1-1.29,0.31-1.86c0.21-0.57,0.5-1.08,0.89-1.5
			c0.39-0.43,0.86-0.76,1.42-1.01c0.56-0.25,1.19-0.37,1.88-0.37c0.58,0,1.12,0.1,1.62,0.29c0.49,0.19,0.92,0.47,1.28,0.83
			c0.36,0.36,0.64,0.81,0.84,1.35c0.2,0.53,0.31,1.14,0.31,1.83c0,0.28-0.03,0.47-0.09,0.57c-0.06,0.1-0.18,0.15-0.35,0.15h-6.27
			c0.02,0.57,0.1,1.07,0.24,1.49c0.14,0.42,0.34,0.78,0.6,1.06c0.25,0.28,0.56,0.49,0.91,0.63c0.35,0.14,0.74,0.21,1.18,0.21
			c0.41,0,0.76-0.05,1.06-0.14c0.3-0.09,0.56-0.2,0.77-0.31c0.22-0.11,0.4-0.21,0.55-0.31c0.15-0.09,0.28-0.14,0.39-0.14
			c0.15,0,0.27,0.06,0.35,0.17L746.24,325.06z M744.72,320.58c0-0.36-0.05-0.7-0.16-1.01c-0.1-0.31-0.26-0.57-0.46-0.8
			c-0.2-0.23-0.45-0.4-0.73-0.53c-0.29-0.13-0.62-0.19-1-0.19c-0.77,0-1.38,0.22-1.82,0.67c-0.44,0.45-0.72,1.06-0.84,1.86H744.72z"
			/>
		<path class="st2" d="M754.86,318.29c0.2-0.24,0.42-0.46,0.64-0.66c0.23-0.2,0.48-0.37,0.74-0.51c0.26-0.14,0.54-0.25,0.84-0.33
			c0.3-0.08,0.62-0.12,0.96-0.12c0.55,0,1.04,0.11,1.48,0.32c0.44,0.21,0.82,0.53,1.14,0.94c0.31,0.41,0.56,0.93,0.73,1.53
			c0.17,0.61,0.26,1.31,0.26,2.1c0,0.71-0.1,1.37-0.29,1.97c-0.19,0.61-0.47,1.13-0.82,1.58c-0.35,0.45-0.79,0.8-1.3,1.05
			c-0.51,0.25-1.09,0.38-1.73,0.38c-0.57,0-1.06-0.09-1.47-0.28c-0.41-0.19-0.77-0.45-1.09-0.79v4.15h-1.84v-12.78h1.1
			c0.26,0,0.42,0.12,0.48,0.37L754.86,318.29z M754.95,324.07c0.3,0.4,0.63,0.67,0.97,0.83c0.35,0.16,0.74,0.24,1.17,0.24
			c0.84,0,1.49-0.3,1.95-0.91c0.46-0.61,0.69-1.49,0.69-2.65c0-0.61-0.05-1.13-0.16-1.56c-0.1-0.43-0.25-0.78-0.45-1.05
			c-0.2-0.27-0.44-0.47-0.73-0.6c-0.29-0.13-0.62-0.19-0.98-0.19c-0.53,0-1,0.12-1.39,0.36c-0.39,0.24-0.76,0.58-1.09,1.02V324.07z"
			/>
		<path class="st2" d="M763.47,318.2c0.53-0.51,1.11-0.89,1.74-1.14c0.63-0.25,1.31-0.38,2.06-0.38c0.55,0,1.03,0.09,1.45,0.27
			c0.42,0.18,0.78,0.43,1.06,0.75c0.29,0.32,0.51,0.7,0.65,1.15c0.15,0.45,0.22,0.94,0.22,1.48v6.1h-0.82
			c-0.18,0-0.32-0.03-0.41-0.09c-0.09-0.06-0.17-0.17-0.23-0.33l-0.2-0.84c-0.25,0.23-0.49,0.43-0.73,0.6
			c-0.24,0.17-0.49,0.32-0.75,0.44c-0.26,0.12-0.54,0.22-0.83,0.28c-0.3,0.06-0.62,0.09-0.98,0.09c-0.38,0-0.73-0.05-1.06-0.16
			c-0.33-0.1-0.62-0.26-0.86-0.48c-0.24-0.21-0.44-0.48-0.58-0.8c-0.14-0.32-0.21-0.69-0.21-1.12c0-0.38,0.1-0.74,0.31-1.09
			c0.2-0.35,0.54-0.66,1-0.94c0.46-0.28,1.06-0.5,1.81-0.68c0.74-0.18,1.66-0.28,2.75-0.3v-0.7c0-0.72-0.15-1.26-0.46-1.62
			c-0.31-0.36-0.76-0.54-1.36-0.54c-0.4,0-0.74,0.05-1.01,0.15c-0.27,0.1-0.51,0.21-0.71,0.33c-0.2,0.12-0.37,0.23-0.52,0.33
			c-0.15,0.1-0.3,0.15-0.46,0.15c-0.13,0-0.23-0.03-0.32-0.1c-0.09-0.07-0.17-0.15-0.22-0.24L763.47,318.2z M768.85,322.18
			c-0.75,0.03-1.38,0.08-1.9,0.17c-0.52,0.09-0.95,0.21-1.27,0.36c-0.33,0.15-0.56,0.33-0.71,0.53c-0.14,0.2-0.22,0.43-0.22,0.68
			c0,0.24,0.04,0.44,0.12,0.62c0.08,0.17,0.18,0.31,0.32,0.42c0.14,0.11,0.29,0.19,0.48,0.24c0.18,0.05,0.38,0.08,0.59,0.08
			c0.28,0,0.54-0.03,0.78-0.08c0.24-0.06,0.46-0.14,0.66-0.24c0.21-0.1,0.41-0.23,0.59-0.38c0.19-0.15,0.37-0.32,0.56-0.52V322.18z"
			/>
		<path class="st2" d="M774.85,318.7c0.31-0.63,0.68-1.12,1.11-1.48c0.43-0.36,0.95-0.54,1.56-0.54c0.21,0,0.4,0.02,0.59,0.07
			c0.19,0.05,0.35,0.12,0.49,0.21l-0.12,1.38c-0.04,0.17-0.15,0.25-0.31,0.25c-0.09,0-0.22-0.02-0.4-0.05
			c-0.18-0.03-0.36-0.05-0.56-0.05c-0.3,0-0.56,0.04-0.78,0.13c-0.23,0.08-0.43,0.21-0.61,0.38c-0.18,0.17-0.34,0.37-0.48,0.61
			c-0.14,0.24-0.27,0.52-0.39,0.82v5.99h-1.84v-9.57h1.05c0.2,0,0.34,0.04,0.41,0.11c0.07,0.07,0.12,0.2,0.16,0.38L774.85,318.7z"/>
		<path class="st2" d="M779.63,318.2c0.53-0.51,1.11-0.89,1.74-1.14c0.63-0.25,1.31-0.38,2.06-0.38c0.55,0,1.03,0.09,1.45,0.27
			c0.42,0.18,0.78,0.43,1.06,0.75c0.29,0.32,0.51,0.7,0.65,1.15c0.15,0.45,0.22,0.94,0.22,1.48v6.1H786c-0.18,0-0.32-0.03-0.41-0.09
			c-0.09-0.06-0.17-0.17-0.23-0.33l-0.2-0.84c-0.25,0.23-0.49,0.43-0.73,0.6c-0.24,0.17-0.49,0.32-0.75,0.44
			c-0.26,0.12-0.54,0.22-0.83,0.28c-0.3,0.06-0.62,0.09-0.98,0.09c-0.38,0-0.73-0.05-1.06-0.16c-0.33-0.1-0.62-0.26-0.86-0.48
			c-0.24-0.21-0.44-0.48-0.58-0.8c-0.14-0.32-0.21-0.69-0.21-1.12c0-0.38,0.1-0.74,0.31-1.09c0.2-0.35,0.54-0.66,1-0.94
			c0.46-0.28,1.06-0.5,1.81-0.68c0.74-0.18,1.66-0.28,2.75-0.3v-0.7c0-0.72-0.15-1.26-0.46-1.62c-0.31-0.36-0.76-0.54-1.36-0.54
			c-0.4,0-0.74,0.05-1.01,0.15c-0.27,0.1-0.51,0.21-0.71,0.33c-0.2,0.12-0.37,0.23-0.52,0.33c-0.15,0.1-0.3,0.15-0.46,0.15
			c-0.13,0-0.23-0.03-0.32-0.1c-0.09-0.07-0.17-0.15-0.22-0.24L779.63,318.2z M785.02,322.18c-0.75,0.03-1.38,0.08-1.9,0.17
			c-0.52,0.09-0.95,0.21-1.27,0.36c-0.33,0.15-0.56,0.33-0.71,0.53c-0.14,0.2-0.22,0.43-0.22,0.68c0,0.24,0.04,0.44,0.12,0.62
			c0.08,0.17,0.18,0.31,0.32,0.42c0.14,0.11,0.29,0.19,0.48,0.24c0.18,0.05,0.38,0.08,0.59,0.08c0.28,0,0.54-0.03,0.78-0.08
			c0.24-0.06,0.46-0.14,0.66-0.24c0.21-0.1,0.41-0.23,0.59-0.38c0.19-0.15,0.37-0.32,0.56-0.52V322.18z"/>
		<path class="st2" d="M801.9,325.06c-0.23,0.26-0.49,0.49-0.78,0.68c-0.3,0.19-0.61,0.35-0.94,0.47c-0.33,0.12-0.68,0.21-1.03,0.26
			c-0.35,0.06-0.71,0.08-1.05,0.08c-0.66,0-1.27-0.11-1.83-0.33c-0.56-0.22-1.05-0.55-1.46-0.98c-0.41-0.43-0.73-0.96-0.96-1.6
			c-0.23-0.64-0.34-1.37-0.34-2.2c0-0.67,0.1-1.29,0.31-1.86c0.21-0.57,0.5-1.08,0.89-1.5c0.39-0.43,0.86-0.76,1.42-1.01
			c0.56-0.25,1.19-0.37,1.88-0.37c0.58,0,1.12,0.1,1.62,0.29c0.49,0.19,0.92,0.47,1.28,0.83c0.36,0.36,0.64,0.81,0.84,1.35
			c0.2,0.53,0.31,1.14,0.31,1.83c0,0.28-0.03,0.47-0.09,0.57c-0.06,0.1-0.18,0.15-0.35,0.15h-6.27c0.02,0.57,0.1,1.07,0.24,1.49
			c0.14,0.42,0.34,0.78,0.6,1.06c0.25,0.28,0.56,0.49,0.91,0.63c0.35,0.14,0.74,0.21,1.18,0.21c0.41,0,0.76-0.05,1.06-0.14
			c0.3-0.09,0.56-0.2,0.77-0.31c0.22-0.11,0.4-0.21,0.55-0.31c0.15-0.09,0.28-0.14,0.39-0.14c0.15,0,0.27,0.06,0.35,0.17
			L801.9,325.06z M800.38,320.58c0-0.36-0.05-0.7-0.16-1.01c-0.1-0.31-0.26-0.57-0.46-0.8c-0.2-0.23-0.45-0.4-0.73-0.53
			c-0.29-0.13-0.62-0.19-1-0.19c-0.77,0-1.38,0.22-1.82,0.67c-0.44,0.45-0.72,1.06-0.84,1.86H800.38z"/>
		<path class="st2" d="M805.9,312.53v13.9h-1.85v-13.9H805.9z"/>
		<path class="st2" d="M815.67,326.43h-2.02V312.9h2.02V326.43z"/>
		<path class="st2" d="M826.36,312.53v13.9h-1.11c-0.26,0-0.42-0.12-0.48-0.37l-0.16-1.1c-0.41,0.48-0.87,0.87-1.39,1.16
			c-0.52,0.29-1.12,0.44-1.79,0.44c-0.55,0-1.04-0.11-1.48-0.32c-0.44-0.21-0.82-0.53-1.14-0.94c-0.31-0.41-0.56-0.92-0.73-1.53
			c-0.17-0.61-0.25-1.31-0.25-2.1c0-0.71,0.09-1.37,0.28-1.98c0.19-0.61,0.46-1.14,0.82-1.58c0.36-0.45,0.79-0.8,1.3-1.05
			c0.51-0.25,1.08-0.38,1.72-0.38c0.58,0,1.07,0.09,1.47,0.28c0.41,0.19,0.77,0.46,1.09,0.8v-5.24H826.36z M824.51,319.18
			c-0.3-0.4-0.63-0.67-0.97-0.83c-0.35-0.16-0.74-0.24-1.17-0.24c-0.84,0-1.49,0.3-1.95,0.91c-0.46,0.61-0.69,1.49-0.69,2.65
			c0,0.61,0.05,1.13,0.16,1.56c0.1,0.43,0.25,0.78,0.45,1.05c0.2,0.27,0.44,0.47,0.73,0.6c0.29,0.13,0.62,0.19,0.98,0.19
			c0.53,0,1-0.12,1.38-0.36c0.39-0.24,0.75-0.57,1.09-1.01V319.18z"/>
		<path class="st2" d="M831.2,313.9c0,0.17-0.03,0.33-0.1,0.49c-0.07,0.15-0.16,0.29-0.28,0.41c-0.12,0.12-0.25,0.21-0.41,0.27
			c-0.16,0.07-0.32,0.1-0.49,0.1c-0.17,0-0.33-0.03-0.48-0.1c-0.15-0.07-0.28-0.16-0.4-0.27c-0.12-0.12-0.21-0.25-0.27-0.41
			c-0.07-0.15-0.1-0.32-0.1-0.49c0-0.18,0.03-0.34,0.1-0.5c0.07-0.15,0.16-0.29,0.27-0.4c0.12-0.12,0.25-0.21,0.4-0.27
			s0.31-0.1,0.48-0.1c0.17,0,0.33,0.03,0.49,0.1c0.16,0.07,0.29,0.16,0.41,0.27c0.12,0.12,0.21,0.25,0.28,0.4
			C831.16,313.56,831.2,313.73,831.2,313.9z M830.85,316.86v9.57h-1.84v-9.57H830.85z"/>
		<path class="st2" d="M837.59,316.71c0.7,0,1.34,0.11,1.91,0.34c0.57,0.23,1.05,0.56,1.45,0.99c0.4,0.43,0.7,0.95,0.92,1.55
			c0.21,0.61,0.32,1.29,0.32,2.04c0,0.75-0.11,1.43-0.32,2.04c-0.21,0.61-0.52,1.13-0.92,1.55c-0.4,0.43-0.88,0.76-1.45,0.98
			c-0.57,0.23-1.2,0.34-1.91,0.34c-0.71,0-1.35-0.11-1.92-0.34c-0.57-0.23-1.05-0.56-1.46-0.98c-0.4-0.43-0.71-0.94-0.93-1.55
			c-0.22-0.61-0.32-1.29-0.32-2.04c0-0.75,0.11-1.43,0.32-2.04c0.22-0.61,0.53-1.12,0.93-1.55c0.4-0.43,0.89-0.76,1.46-0.99
			C836.24,316.82,836.88,316.71,837.59,316.71z M837.59,325.13c0.9,0,1.58-0.3,2.03-0.91c0.45-0.61,0.67-1.47,0.67-2.57
			c0-1.1-0.22-1.96-0.67-2.58c-0.45-0.61-1.12-0.92-2.03-0.92c-0.92,0-1.6,0.31-2.05,0.92c-0.45,0.61-0.67,1.47-0.67,2.58
			c0,1.11,0.22,1.96,0.67,2.57C835.99,324.82,836.68,325.13,837.59,325.13z"/>
		<path class="st2" d="M844.23,326.43v-9.57h1.1c0.26,0,0.42,0.12,0.48,0.37l0.13,0.91c0.35-0.42,0.74-0.76,1.17-1.03
			s0.93-0.4,1.51-0.4c0.63,0,1.15,0.17,1.54,0.52c0.4,0.35,0.68,0.82,0.87,1.42c0.14-0.34,0.32-0.63,0.54-0.88
			c0.22-0.24,0.46-0.45,0.73-0.6c0.27-0.16,0.56-0.27,0.86-0.35c0.3-0.08,0.61-0.11,0.93-0.11c0.51,0,0.96,0.08,1.36,0.24
			c0.4,0.16,0.74,0.39,1.01,0.7c0.28,0.31,0.49,0.69,0.63,1.14c0.14,0.45,0.22,0.97,0.22,1.54v6.09h-1.85v-6.09
			c0-0.72-0.16-1.26-0.47-1.62c-0.31-0.36-0.76-0.55-1.36-0.55c-0.26,0-0.51,0.05-0.75,0.14c-0.24,0.09-0.45,0.23-0.63,0.41
			c-0.18,0.18-0.32,0.41-0.42,0.68c-0.1,0.27-0.16,0.58-0.16,0.94v6.09h-1.85v-6.09c0-0.74-0.15-1.29-0.44-1.64
			c-0.3-0.35-0.73-0.53-1.3-0.53c-0.4,0-0.76,0.1-1.1,0.31c-0.34,0.21-0.65,0.49-0.93,0.85v7.1H844.23z"/>
		<path class="st2" d="M859.56,318.2c0.53-0.51,1.11-0.89,1.74-1.14c0.63-0.25,1.31-0.38,2.06-0.38c0.55,0,1.03,0.09,1.45,0.27
			c0.42,0.18,0.78,0.43,1.06,0.75c0.29,0.32,0.51,0.7,0.65,1.15c0.15,0.45,0.22,0.94,0.22,1.48v6.1h-0.82
			c-0.18,0-0.32-0.03-0.41-0.09c-0.09-0.06-0.17-0.17-0.23-0.33l-0.2-0.84c-0.25,0.23-0.49,0.43-0.73,0.6
			c-0.24,0.17-0.49,0.32-0.75,0.44c-0.26,0.12-0.54,0.22-0.83,0.28c-0.3,0.06-0.62,0.09-0.98,0.09c-0.38,0-0.73-0.05-1.06-0.16
			c-0.33-0.1-0.62-0.26-0.86-0.48c-0.24-0.21-0.44-0.48-0.58-0.8c-0.14-0.32-0.21-0.69-0.21-1.12c0-0.38,0.1-0.74,0.31-1.09
			c0.2-0.35,0.54-0.66,1-0.94c0.46-0.28,1.06-0.5,1.81-0.68c0.74-0.18,1.66-0.28,2.75-0.3v-0.7c0-0.72-0.15-1.26-0.46-1.62
			c-0.31-0.36-0.76-0.54-1.36-0.54c-0.4,0-0.74,0.05-1.01,0.15c-0.27,0.1-0.51,0.21-0.71,0.33c-0.2,0.12-0.37,0.23-0.52,0.33
			c-0.15,0.1-0.3,0.15-0.46,0.15c-0.13,0-0.23-0.03-0.32-0.1c-0.09-0.07-0.17-0.15-0.22-0.24L859.56,318.2z M864.95,322.18
			c-0.75,0.03-1.38,0.08-1.9,0.17c-0.52,0.09-0.94,0.21-1.27,0.36c-0.33,0.15-0.56,0.33-0.71,0.53c-0.14,0.2-0.22,0.43-0.22,0.68
			c0,0.24,0.04,0.44,0.12,0.62c0.08,0.17,0.18,0.31,0.32,0.42c0.14,0.11,0.29,0.19,0.48,0.24c0.18,0.05,0.38,0.08,0.59,0.08
			c0.28,0,0.54-0.03,0.78-0.08c0.24-0.06,0.46-0.14,0.66-0.24c0.21-0.1,0.41-0.23,0.59-0.38c0.19-0.15,0.37-0.32,0.56-0.52V322.18z"
			/>
		<path class="st2" d="M876.36,326.43h-2.02V312.9h2.02V326.43z"/>
		<path class="st2" d="M880.9,318.19c0.21-0.22,0.42-0.42,0.65-0.6c0.23-0.18,0.47-0.34,0.72-0.47c0.25-0.13,0.53-0.23,0.82-0.3
			c0.29-0.07,0.6-0.11,0.94-0.11c0.53,0,0.99,0.09,1.39,0.26c0.4,0.18,0.73,0.42,1,0.74c0.27,0.32,0.47,0.7,0.61,1.14
			c0.14,0.45,0.21,0.94,0.21,1.48v6.09h-1.85v-6.09c0-0.68-0.16-1.22-0.47-1.6c-0.31-0.38-0.79-0.57-1.44-0.57
			c-0.47,0-0.91,0.11-1.32,0.33c-0.41,0.22-0.79,0.53-1.14,0.91v7.02h-1.84v-9.57h1.1c0.26,0,0.42,0.12,0.48,0.37L880.9,318.19z"/>
		<path class="st2" d="M897.87,317.22v0.69c0,0.23-0.14,0.37-0.42,0.42l-1.03,0.15c0.09,0.19,0.16,0.4,0.21,0.62
			c0.05,0.22,0.08,0.44,0.08,0.68c0,0.47-0.09,0.9-0.27,1.28c-0.18,0.38-0.43,0.71-0.75,0.97c-0.32,0.27-0.7,0.48-1.14,0.62
			c-0.44,0.14-0.93,0.22-1.46,0.22c-0.43,0-0.84-0.05-1.22-0.14c-0.19,0.11-0.33,0.24-0.43,0.37c-0.1,0.14-0.15,0.27-0.15,0.4
			c0,0.22,0.09,0.38,0.28,0.49c0.18,0.11,0.43,0.18,0.73,0.23c0.3,0.05,0.64,0.08,1.03,0.09c0.39,0.01,0.78,0.03,1.18,0.06
			s0.79,0.08,1.18,0.15c0.39,0.07,0.73,0.19,1.03,0.35c0.3,0.16,0.54,0.38,0.72,0.66c0.19,0.28,0.28,0.64,0.28,1.09
			c0,0.41-0.1,0.82-0.31,1.21c-0.2,0.39-0.5,0.73-0.89,1.04c-0.39,0.3-0.86,0.54-1.42,0.72c-0.56,0.18-1.19,0.27-1.9,0.27
			c-0.71,0-1.33-0.07-1.85-0.21c-0.52-0.14-0.96-0.32-1.31-0.56c-0.35-0.23-0.61-0.5-0.78-0.81c-0.17-0.31-0.26-0.63-0.26-0.96
			c0-0.46,0.14-0.86,0.43-1.18c0.29-0.32,0.69-0.58,1.2-0.76c-0.28-0.13-0.5-0.3-0.66-0.51c-0.16-0.22-0.24-0.5-0.24-0.86
			c0-0.14,0.03-0.28,0.08-0.43c0.05-0.15,0.13-0.3,0.23-0.44c0.1-0.15,0.23-0.29,0.39-0.42c0.15-0.13,0.33-0.25,0.53-0.36
			c-0.47-0.26-0.84-0.61-1.11-1.05s-0.41-0.95-0.41-1.53c0-0.47,0.09-0.89,0.27-1.27c0.18-0.38,0.43-0.7,0.76-0.97
			c0.32-0.27,0.71-0.48,1.16-0.62c0.45-0.14,0.94-0.22,1.47-0.22c0.83,0,1.54,0.17,2.14,0.52H897.87z M896.01,326.93
			c0-0.23-0.06-0.41-0.19-0.54c-0.13-0.13-0.3-0.24-0.51-0.32c-0.22-0.08-0.47-0.13-0.76-0.17c-0.29-0.03-0.59-0.06-0.91-0.08
			c-0.32-0.02-0.64-0.04-0.97-0.05c-0.33-0.01-0.65-0.05-0.96-0.09c-0.33,0.16-0.59,0.36-0.8,0.59c-0.21,0.23-0.32,0.51-0.32,0.82
			c0,0.2,0.05,0.39,0.16,0.57c0.1,0.18,0.26,0.33,0.48,0.46c0.22,0.13,0.49,0.23,0.82,0.3c0.33,0.07,0.72,0.11,1.18,0.11
			c0.45,0,0.85-0.04,1.2-0.12c0.34-0.08,0.64-0.19,0.87-0.33c0.24-0.14,0.41-0.31,0.54-0.5
			C895.95,327.37,896.01,327.16,896.01,326.93z M893.08,321.65c0.33,0,0.61-0.04,0.86-0.13c0.25-0.09,0.45-0.21,0.62-0.37
			c0.17-0.16,0.29-0.35,0.38-0.58c0.08-0.23,0.13-0.47,0.13-0.74c0-0.55-0.17-0.99-0.5-1.32c-0.34-0.33-0.83-0.49-1.48-0.49
			c-0.65,0-1.14,0.16-1.47,0.49c-0.34,0.33-0.5,0.77-0.5,1.32c0,0.27,0.04,0.52,0.13,0.74c0.09,0.22,0.21,0.41,0.38,0.57
			c0.17,0.16,0.37,0.29,0.62,0.38C892.48,321.61,892.76,321.65,893.08,321.65z"/>
		<path class="st2" d="M901.44,312.53v13.9h-1.85v-13.9H901.44z"/>
		<path class="st2" d="M911.91,325.06c-0.23,0.26-0.49,0.49-0.78,0.68c-0.3,0.19-0.61,0.35-0.94,0.47
			c-0.33,0.12-0.68,0.21-1.03,0.26c-0.35,0.06-0.71,0.08-1.05,0.08c-0.66,0-1.27-0.11-1.83-0.33c-0.56-0.22-1.05-0.55-1.46-0.98
			c-0.41-0.43-0.73-0.96-0.96-1.6c-0.23-0.64-0.34-1.37-0.34-2.2c0-0.67,0.1-1.29,0.31-1.86c0.21-0.57,0.5-1.08,0.89-1.5
			c0.39-0.43,0.86-0.76,1.42-1.01c0.56-0.25,1.19-0.37,1.88-0.37c0.58,0,1.12,0.1,1.62,0.29c0.49,0.19,0.92,0.47,1.28,0.83
			c0.36,0.36,0.64,0.81,0.84,1.35c0.2,0.53,0.31,1.14,0.31,1.83c0,0.28-0.03,0.47-0.09,0.57c-0.06,0.1-0.18,0.15-0.35,0.15h-6.27
			c0.02,0.57,0.1,1.07,0.24,1.49c0.14,0.42,0.34,0.78,0.6,1.06c0.25,0.28,0.56,0.49,0.91,0.63c0.35,0.14,0.74,0.21,1.18,0.21
			c0.41,0,0.76-0.05,1.06-0.14c0.3-0.09,0.56-0.2,0.77-0.31c0.22-0.11,0.4-0.21,0.55-0.31c0.15-0.09,0.28-0.14,0.39-0.14
			c0.15,0,0.27,0.06,0.35,0.17L911.91,325.06z M910.39,320.58c0-0.36-0.05-0.7-0.16-1.01c-0.1-0.31-0.26-0.57-0.46-0.8
			c-0.2-0.23-0.45-0.4-0.73-0.53c-0.29-0.13-0.62-0.19-1-0.19c-0.77,0-1.38,0.22-1.82,0.67c-0.44,0.45-0.72,1.06-0.84,1.86H910.39z
			 M910.92,312.75l-2.23,2.43c-0.09,0.11-0.18,0.18-0.27,0.22c-0.09,0.04-0.2,0.06-0.35,0.06h-1.11l1.39-2.28
			c0.09-0.14,0.18-0.25,0.29-0.33c0.1-0.07,0.27-0.11,0.48-0.11H910.92z"/>
		<path class="st2" d="M919.67,318.51c-0.05,0.08-0.1,0.14-0.16,0.17c-0.06,0.04-0.13,0.05-0.22,0.05c-0.1,0-0.21-0.03-0.33-0.1
			c-0.12-0.07-0.27-0.14-0.44-0.23c-0.17-0.08-0.38-0.16-0.61-0.23c-0.23-0.07-0.51-0.1-0.83-0.1c-0.26,0-0.5,0.03-0.72,0.1
			c-0.22,0.07-0.4,0.16-0.55,0.27s-0.27,0.25-0.35,0.41c-0.08,0.16-0.12,0.33-0.12,0.51c0,0.24,0.07,0.44,0.21,0.59
			c0.14,0.16,0.33,0.29,0.56,0.41c0.23,0.11,0.49,0.22,0.78,0.31c0.29,0.09,0.59,0.19,0.89,0.29c0.3,0.1,0.6,0.21,0.89,0.34
			c0.29,0.13,0.55,0.29,0.78,0.48c0.23,0.19,0.41,0.42,0.56,0.69c0.14,0.27,0.21,0.6,0.21,0.99c0,0.45-0.08,0.86-0.24,1.24
			c-0.16,0.38-0.39,0.71-0.71,0.98c-0.31,0.28-0.7,0.49-1.15,0.65s-0.98,0.24-1.57,0.24c-0.66,0-1.27-0.11-1.83-0.33
			c-0.56-0.22-1.03-0.5-1.4-0.84l0.43-0.71c0.05-0.09,0.11-0.16,0.19-0.2c0.08-0.05,0.18-0.07,0.3-0.07c0.12,0,0.24,0.04,0.37,0.13
			c0.13,0.09,0.28,0.18,0.45,0.29c0.18,0.1,0.39,0.2,0.64,0.28c0.25,0.08,0.56,0.13,0.94,0.13c0.31,0,0.59-0.04,0.82-0.12
			c0.23-0.08,0.43-0.18,0.58-0.32c0.15-0.13,0.27-0.29,0.34-0.47c0.08-0.18,0.11-0.36,0.11-0.56c0-0.25-0.07-0.46-0.21-0.63
			c-0.14-0.17-0.33-0.31-0.56-0.43c-0.23-0.12-0.49-0.22-0.79-0.31c-0.3-0.09-0.6-0.18-0.9-0.28c-0.31-0.1-0.61-0.22-0.9-0.35
			c-0.29-0.13-0.56-0.3-0.79-0.5c-0.23-0.2-0.41-0.45-0.56-0.73c-0.14-0.29-0.21-0.64-0.21-1.06c0-0.37,0.08-0.72,0.23-1.06
			c0.15-0.34,0.38-0.64,0.67-0.89c0.29-0.26,0.65-0.46,1.08-0.62c0.43-0.15,0.92-0.23,1.47-0.23c0.63,0,1.21,0.1,1.72,0.3
			c0.51,0.2,0.95,0.48,1.31,0.83L919.67,318.51z"/>
	</g>
	<g>
		<defs>
			<path id="SVGID_3_" d="M517.77,279.22c-1.61,21.7,3.61,41.64,10.66,61.88c-5.76-2.62-10.9-5.04-16.11-7.29
				c-3.3-1.43-6.67-2.69-10.05-3.9c-12.85-4.6-25.19-4.35-38.32,0.63c-30.64,11.64-62.3,19.01-95.47,17.03
				c-24.23-1.45-45.39-9.45-60.49-29.51c-9.27-12.31-14.34-26.5-17.14-41.53c-4-21.46-4.92-42.79,1.83-64.03
				c7.31-23,22.69-38.79,43.39-49.99c21.56-11.67,44.96-17.31,69.1-19.6c16.98-1.62,34.13-2.82,51.15-2.32
				c43.2,1.27,74.8,36.65,72.3,79.72"/>
		</defs>
		<clipPath id="SVGID_1_">
			<use xlink:href="#SVGID_3_"  style="overflow:visible;"/>
		</clipPath>
		<g class="st3">
			<path class="st1" d="M517.77,278.16c-1.61,21.7,3.61,41.64,10.66,61.88c-5.76-2.62-10.9-5.04-16.11-7.29
				c-3.3-1.43-6.67-2.69-10.05-3.9c-12.85-4.6-25.19-4.35-38.32,0.63c-30.64,11.64-62.3,19.01-95.47,17.03
				c-24.23-1.45-45.39-9.45-60.49-29.51c-9.27-12.31-14.34-26.5-17.14-41.53c-4-21.46-4.92-42.79,1.83-64.03
				c7.31-23,22.69-38.79,43.39-49.99c21.56-11.67,44.96-17.31,69.1-19.6c16.98-1.62,34.13-2.82,51.15-2.32
				c43.2,1.27,74.8,36.65,72.3,79.72"/>
		</g>
		<path class="st4" d="M400.4,188l-1.07-7.32c-0.87-3.91-3.16-7.28-6.87-10.09c-3.71-2.81-8.05-3.67-13.03-2.56
			c-8.54,1.9-15.42,7.45-20.65,16.64c-5.23,9.19-6.89,18.1-4.97,26.72c1.92,8.63,5.75,15.38,11.51,20.26
			c6.89-5.08,13.63-8.35,20.21-9.82c6.58-1.46,12.12-1.53,16.61-0.2c4.5,1.34,7.24,4.22,8.23,8.67c0.99,4.45-0.46,8.22-4.34,11.32
			c-3.88,3.1-8.49,5.25-13.82,6.44c-9.96,2.22-19.64,1.48-29.05-2.21c-3.28,5.4-5.54,11.41-6.77,18.03
			c-1.23,6.62-1.27,12.51-0.13,17.67c2.34,10.5,7.85,19.35,16.55,26.55c8.7,7.21,18.65,9.57,29.85,7.07
			c23.47-5.23,39.14-24.95,47.02-59.18c2.72-11.24,4.75-17.02,6.08-17.31c1.33-0.3,2.16,0.27,2.48,1.69
			c1.58,7.11-0.43,18.81-6.05,35.08c-5.61,16.28-12.91,28.35-21.89,36.23c-8.98,7.88-20.89,13.47-35.74,16.78
			c-14.85,3.31-27.51,1.55-37.99-5.26c-10.47-6.81-17.16-16.71-20.05-29.69c-1.9-8.54-1.2-17.32,2.11-26.37
			c3.31-9.04,8.33-17.3,15.06-24.77c-9.91-5.07-15.94-12.5-18.12-22.28c-3.01-13.51-0.31-26.11,8.11-37.78
			c8.41-11.67,20.09-19.17,35.03-22.5c9.78-2.18,18.57-1.48,26.37,2.11c7.8,3.58,12.47,8.84,14.01,15.78
			c0.87,3.91,0.43,7.37-1.33,10.38c-1.76,3.01-4.42,4.9-7.97,5.69C404.64,194.89,401.51,192.98,400.4,188z M392.29,230.82
			c-3.18-0.87-6.64-0.9-10.37-0.07c-3.73,0.83-7.18,2.54-10.34,5.1c7.27,4.17,14.55,5.44,21.85,3.81c1.6-0.36,2.75-1.03,3.47-2.03
			c0.71-1,1.01-1.76,0.89-2.3C397.3,233.2,395.47,231.7,392.29,230.82z"/>
		<path class="st4" d="M489.07,304.6c-9.96,2.22-18.71,0.2-26.26-6.05c-7.55-6.25-12.4-14.18-14.53-23.78
			c-4.32-19.38-3.49-34.96,2.47-46.75c5.96-11.78,15.43-19.12,28.42-22.01c6.04-1.35,11.39-0.81,16.04,1.61
			c4.64,2.42,7.6,6.48,8.87,12.16c2.38,10.67-0.13,20.61-7.5,29.81c-7.38,9.2-17.52,15.43-30.42,18.67
			c2.25,6.78,5.95,12.25,11.08,16.43c5.13,4.18,10.36,5.67,15.7,4.48c5.33-1.19,9.86-3.5,13.57-6.94c3.71-3.44,6.83-7.86,9.36-13.28
			c5.29-11.44,9.22-23.98,11.78-37.62c0.71-3.52,1.31-6.07,1.79-7.68c0.48-1.6,1.21-2.51,2.19-2.73c0.98-0.22,1.63,0.39,1.94,1.81
			c1.98,8.89-0.48,23.44-7.36,43.63C518.69,288.02,506.32,300.76,489.07,304.6z M464.72,261.87c10.1-4.11,17.03-9.2,20.82-15.27
			c3.78-6.07,4.78-13.1,3-21.11c-1.78-8-5.25-11.43-10.41-10.28c-6.23,1.39-10.51,6.87-12.86,16.44
			C462.92,241.22,462.73,251.3,464.72,261.87z"/>
		<g class="st3">
			<path class="st5" d="M517.77,278.16c-1.61,21.7,3.61,41.64,10.66,61.88c-5.76-2.62-10.9-5.04-16.11-7.29
				c-3.3-1.43-6.67-2.69-10.05-3.9c-12.85-4.6-25.19-4.35-38.32,0.63c-30.64,11.64-62.3,19.01-95.47,17.03
				c-24.23-1.45-45.39-9.45-60.49-29.51c-9.27-12.31-14.34-26.5-17.14-41.53c-4-21.46-4.92-42.79,1.83-64.03
				c7.31-23,22.69-38.79,43.39-49.99c21.56-11.67,44.96-17.31,69.1-19.6c16.98-1.62,34.13-2.82,51.15-2.32
				c43.2,1.27,74.8,36.65,72.3,79.72"/>
		</g>
	</g>
</g>
</svg>
